<?xml version="1.0" encoding="UTF-8" standalone="no"?>
<svg width="37px" height="37px" viewBox="0 0 37 37" version="1.1" xmlns="http://www.w3.org/2000/svg" xmlns:xlink="http://www.w3.org/1999/xlink" xmlns:sketch="http://www.bohemiancoding.com/sketch/ns">
    <!-- Generator: Sketch 3.2.2 (9983) - http://www.bohemiancoding.com/sketch -->
    <title>bitcoin</title>
    <desc>Created with Sketch.</desc>
    <defs></defs>
    <g id="Page-1" stroke="none" stroke-width="1" fill="none" fill-rule="evenodd" sketch:type="MSPage">
        <circle id="Oval-1" stroke="#0A0B09" stroke-width="6" fill="#0A0B09" sketch:type="MSShapeGroup" cx="18.5" cy="18.5" r="15.5"></circle>
        <path d="M18.5,34 C27.0604136,34 34,27.0604136 34,18.5 C34,9.93958638 27.0604136,3 18.5,3 C9.93958638,3 3,9.93958638 3,18.5 C3,27.0604136 9.93958638,34 18.5,34 Z" id="Dashes" stroke="#FFFFFF" stroke-width="3" fill="#0A0B09" sketch:type="MSShapeGroup"></path>
        <circle id="Oval-2" stroke="#0A0B09" stroke-width="1.25" stroke-linecap="round" stroke-linejoin="round" stroke-dasharray="4" sketch:type="MSShapeGroup" cx="18.5" cy="18.5" r="15.5"></circle>
        <path d="M13.514,25.642 L14.188,25.642 C14.479,25.642 14.704,25.664 14.861,25.664 L14.861,28.829 L16.791,28.829 L16.791,25.687 C17.15,25.709 17.667,25.709 18.34,25.709 L18.34,28.829 L20.271,28.829 L20.271,25.664 C20.966,25.62 21.572,25.552 22.089,25.462 C22.627,25.373 23.121,25.238 23.615,25.036 C24.109,24.834 24.513,24.587 24.827,24.295 C25.164,24.003 25.433,23.644 25.635,23.195 C25.859,22.746 25.994,22.208 26.039,21.624 C26.151,20.457 25.972,19.582 25.478,18.953 C25.007,18.325 24.266,17.898 23.278,17.651 C24.535,17.023 25.074,15.945 24.939,14.419 C24.872,13.858 24.737,13.387 24.468,12.983 C24.221,12.556 23.884,12.242 23.435,11.995 C23.009,11.748 22.537,11.546 22.021,11.434 C21.505,11.299 20.921,11.209 20.271,11.142 L20.271,8 L18.34,8 L18.34,11.052 C18.004,11.052 17.487,11.052 16.791,11.075 L16.791,8 L14.861,8 L14.861,11.142 C14.592,11.142 14.188,11.165 13.671,11.165 L11,11.142 L11,13.207 L12.392,13.207 C13.043,13.207 13.402,13.499 13.514,14.06 L13.514,17.674 C13.604,17.674 13.671,17.674 13.716,17.696 L13.514,17.696 L13.514,22.724 C13.447,23.151 13.2,23.353 12.796,23.353 L11.404,23.353 L11,25.642 L13.514,25.642 L13.514,25.642 Z M16.836,19.133 C16.904,19.133 17.106,19.133 17.442,19.11 L18.25,19.11 C18.452,19.11 18.744,19.11 19.126,19.155 C19.485,19.178 19.799,19.2 20.046,19.267 C20.293,19.312 20.562,19.38 20.854,19.492 C21.168,19.604 21.393,19.716 21.595,19.873 C21.774,20.031 21.931,20.21 22.044,20.457 C22.178,20.681 22.246,20.951 22.246,21.243 C22.246,21.49 22.201,21.692 22.111,21.894 C22.044,22.073 21.931,22.253 21.819,22.387 C21.685,22.522 21.527,22.657 21.325,22.769 C21.101,22.881 20.921,22.971 20.719,23.016 C20.517,23.083 20.293,23.151 20.024,23.195 C19.754,23.263 19.507,23.285 19.305,23.308 C19.103,23.33 18.856,23.353 18.587,23.353 C18.295,23.375 18.071,23.375 17.914,23.375 L17.308,23.375 L16.836,23.375 L16.836,19.133 L16.836,19.133 Z M16.836,13.342 L17.33,13.342 C17.599,13.342 17.846,13.342 18.026,13.319 C18.205,13.319 18.43,13.342 18.744,13.364 C19.036,13.387 19.305,13.409 19.507,13.454 C19.732,13.499 19.956,13.566 20.203,13.656 C20.45,13.768 20.652,13.88 20.809,14.015 C20.944,14.15 21.078,14.329 21.191,14.554 C21.28,14.756 21.348,15.003 21.348,15.295 C21.348,15.519 21.303,15.743 21.236,15.923 C21.146,16.125 21.034,16.282 20.899,16.417 C20.742,16.551 20.585,16.664 20.428,16.754 C20.271,16.843 20.068,16.933 19.822,16.978 C19.575,17.045 19.35,17.09 19.171,17.135 C18.991,17.158 18.767,17.18 18.475,17.202 C18.205,17.202 18.004,17.225 17.869,17.225 L17.263,17.225 C17.016,17.225 16.881,17.202 16.836,17.202 L16.836,13.342 L16.836,13.342 Z" id="Fill-226" fill="#FFFFFF" sketch:type="MSShapeGroup"></path>
    </g>
</svg>