<?xml version="1.0" encoding="UTF-8" standalone="no"?>
<svg width="53px" height="42px" viewBox="0 0 53 42" version="1.1" xmlns="http://www.w3.org/2000/svg" xmlns:xlink="http://www.w3.org/1999/xlink" xmlns:sketch="http://www.bohemiancoding.com/sketch/ns">
    <!-- Generator: Sketch 3.2.2 (9983) - http://www.bohemiancoding.com/sketch -->
    <title>icon-coinkite</title>
    <desc>Created with Sketch.</desc>
    <defs></defs>
    <g id="Manage-Wallets" stroke="none" stroke-width="1" fill="none" fill-rule="evenodd" sketch:type="MSPage">
        <g id="Add-Wallet" sketch:type="MSArtboardGroup" transform="translate(-15.000000, -158.000000)" fill="#FFFFFF">
            <g id="icon-coinkite" sketch:type="MSLayerGroup" transform="translate(15.000000, 158.000000)">
                <path d="M49.9858848,41.9377196 L2.99787745,41.9377196 C1.35552696,41.9377196 0.0190955882,40.5916262 0.0190955882,38.9362243 L0.0190955882,3.10106542 C0.0190955882,1.44684112 1.35552696,0.0995700935 2.99787745,0.0995700935 L49.9858848,0.0995700935 C51.6307034,0.0995700935 52.9671348,1.44671028 52.9671348,3.10106542 L52.9671348,38.9363551 C52.9671348,40.591757 51.6307034,41.9377196 49.9858848,41.9377196 L49.9858848,41.9377196 Z M3.15557843,38.7780374 L49.830652,38.7780374 L49.830652,3.25872897 L3.15557843,3.25872897 L3.15557843,38.7780374 L3.15557843,38.7780374 Z" id="Shape" sketch:type="MSShapeGroup"></path>
                <path d="M32.1328088,27.1342243 L32.1328088,31.9889533 C32.1328088,32.8894019 31.2657132,33.618972 30.2025956,33.618972 L29.8688775,33.618972 L29.8688775,36.5320187 L47.2963946,36.5320187 L47.2963946,27.1342243 L32.1328088,27.1342243 L32.1328088,27.1342243 Z" id="Shape" sketch:type="MSShapeGroup"></path>
                <rect id="Rectangle-path" sketch:type="MSShapeGroup" x="32.1328088" y="16.6313458" width="15.1637157" height="8.69779439"></rect>
                <path d="M29.8690074,5.51743925 L29.8690074,8.41766355 L30.2027255,8.41766355 C31.2657132,8.41766355 32.1329387,9.14893458 32.1329387,10.0476822 L32.1329387,14.9152336 L47.2966544,14.9152336 L47.2966544,5.51743925 L29.8690074,5.51743925 L29.8690074,5.51743925 Z" id="Shape" sketch:type="MSShapeGroup"></path>
                <path d="M22.7836348,33.618972 C21.7179191,33.618972 20.8530319,32.8894019 20.8530319,31.9889533 L20.8530319,27.1342243 L5.6046201,27.1342243 L5.6046201,36.5320187 L23.0344755,36.5320187 L23.0344755,33.618972 L22.7836348,33.618972 L22.7836348,33.618972 Z" id="Shape" sketch:type="MSShapeGroup"></path>
                <rect id="Rectangle-path" sketch:type="MSShapeGroup" x="5.6046201" y="16.6313458" width="15.2485417" height="8.69779439"></rect>
                <path d="M20.8530319,10.0478131 C20.8530319,9.14906542 21.7179191,8.41779439 22.7836348,8.41779439 L23.0344755,8.41779439 L23.0344755,5.51757009 L5.6046201,5.51757009 L5.6046201,14.9153645 L20.8531618,14.9153645 L20.8531618,10.0478131 L20.8530319,10.0478131 Z" id="Shape" sketch:type="MSShapeGroup"></path>
                <path d="M30.3896544,30.8588785 C30.3896544,31.3791028 29.9708505,31.8009346 29.4543603,31.8009346 L23.5308309,31.8009346 C23.0143407,31.8009346 22.5955368,31.3791028 22.5955368,30.8588785 L22.5955368,11.2850467 C22.5955368,10.7648224 23.0143407,10.3429907 23.5308309,10.3429907 L29.4543603,10.3429907 C29.9708505,10.3429907 30.3896544,10.7648224 30.3896544,11.2850467 L30.3896544,30.8588785 L30.3896544,30.8588785 Z" id="Shape" sketch:type="MSShapeGroup"></path>
            </g>
        </g>
    </g>
</svg>